<?xml version="1.0" encoding="UTF-8" standalone="no"?>
<svg
   xmlns:osb="http://www.openswatchbook.org/uri/2009/osb"
   xmlns:dc="http://purl.org/dc/elements/1.1/"
   xmlns:cc="http://creativecommons.org/ns#"
   xmlns:rdf="http://www.w3.org/1999/02/22-rdf-syntax-ns#"
   xmlns:svg="http://www.w3.org/2000/svg"
   xmlns="http://www.w3.org/2000/svg"
   xmlns:sodipodi="http://sodipodi.sourceforge.net/DTD/sodipodi-0.dtd"
   xmlns:inkscape="http://www.inkscape.org/namespaces/inkscape"
   width="200"
   height="200"
   viewBox="0 0 200 200"
   id="svg2"
   version="1.1"
   inkscape:version="0.91 r13725"
   sodipodi:docname="logoblack.svg">
  <metadata
     id="metadata88">
    <rdf:RDF>
      <cc:Work
         rdf:about="">
        <dc:format>image/svg+xml</dc:format>
        <dc:type
           rdf:resource="http://purl.org/dc/dcmitype/StillImage" />
        <dc:title></dc:title>
      </cc:Work>
    </rdf:RDF>
  </metadata>
  <defs
     id="defs86">
    <linearGradient
       id="linearGradient5791"
       osb:paint="solid">
      <stop
         style="stop-color:#0063ff;stop-opacity:1;"
         offset="0"
         id="stop5793" />
    </linearGradient>
  </defs>
  <sodipodi:namedview
     pagecolor="#ffffff"
     bordercolor="#666666"
     borderopacity="1"
     objecttolerance="10"
     gridtolerance="10"
     guidetolerance="10"
     inkscape:pageopacity="0"
     inkscape:pageshadow="2"
     inkscape:window-width="1920"
     inkscape:window-height="1017"
     id="namedview84"
     showgrid="false"
     inkscape:zoom="2.36"
     inkscape:cx="89.491531"
     inkscape:cy="72.358726"
     inkscape:window-x="1912"
     inkscape:window-y="-8"
     inkscape:window-maximized="1"
     inkscape:current-layer="svg2" />
  <g
     class="logo-lettering"
     style="line-height:125%;-inkscape-font-specification:'Gill Sans MT Condensed, Condensed';fill:#0064ff;fill-opacity:0.24260356"
     font-stretch="condensed"
     font-size="35"
     font-family="Gill Sans MT Condensed"
     letter-spacing="0"
     word-spacing="0"
     id="g4">
    <path
       d="M26.692 189.378l-5.007-23.686h3.16l2.77 15.705h.068l3.145-15.705h2.17l2.974 16.064h.068l2.94-16.064h3.16l-5.006 23.686h-2.068l-3.162-15.637h-.068L28.76 189.38h-2.068zM42.02 189.07l4.41-23.515h3.128l4.375 23.516h-2.905l-.838-5.177h-4.34l-.923 5.178H42.02zm4.274-7.98h3.367l-1.64-9.793h-.085l-1.64 9.793zM57.248 189.07v-20.575h-3.605v-2.803h10.22v2.803h-3.59v20.576h-3.025zM75.26 184.9v3.162q-1.69 1.316-3.57 1.316-3.008 0-4.65-3.076-1.64-3.076-1.64-8.784t1.64-8.92q1.66-3.214 4.718-3.214 1.47 0 3.23 1.214v3.042q-1.504-1.47-3.008-1.47-1.812 0-2.632 2.136-.803 2.12-.803 7.075 0 4.906.82 7.06.82 2.153 2.717 2.153 1.3 0 3.18-1.692zM78.03 189.07v-23.378h3.008v10.288h4.443v-10.288h3.01v23.38h-3.01v-10.29H81.04v10.29H78.03zM92.66 189.07v-23.378h2.51q3.01 0 4.58 1.777 1.59 1.76 1.59 4.7 0 3.33-2.426 5.006 1.88 1.333 3.195 7.092l1.076 4.803h-3.145l-.904-4.032q-.974-4.24-1.692-5.384-.718-1.162-1.778-1.042v10.46H92.66zm3.006-13.26h.137q2.53 0 2.53-3.54 0-3.758-2.667-3.775v7.314zM110.86 189.378q-2.77 0-4.512-3.195-1.744-3.213-1.744-8.802 0-5.28 1.64-8.63 1.66-3.366 4.615-3.366 2.87 0 4.562 3.35 1.71 3.35 1.71 8.647 0 5.64-1.795 8.82-1.795 3.178-4.478 3.178zm-.035-21.208q-1.487 0-2.29 2.46-.786 2.445-.786 6.75 0 4.462.82 6.837.82 2.376 2.323 2.376 1.436 0 2.256-2.427.837-2.427.837-6.785 0-4.425-.838-6.818-.838-2.392-2.325-2.392zM129.333 184.9v3.162q-1.69 1.316-3.57 1.316-3.01 0-4.65-3.076-1.64-3.076-1.64-8.784t1.64-8.92q1.658-3.214 4.717-3.214 1.47 0 3.23 1.214v3.042q-1.504-1.47-3.008-1.47-1.81 0-2.632 2.136-.803 2.12-.803 7.075 0 4.906.82 7.06.82 2.153 2.718 2.153 1.3 0 3.178-1.692zM132.136 189.07v-23.378h3.008v23.38h-3.008zm7.28 0l-4.17-11.86 3.3-11.518h3.075l-3.673 11.125 4.58 12.254h-3.11zM144.44 189.07v-23.378h8.324v2.803h-5.315v6.99h4.87v2.802h-4.87v7.98h5.604v2.804h-8.613zM159.07 189.07v-20.575h-3.606v-2.803h10.22v2.803h-3.59v20.576h-3.024zM167.187 188.473v-3.11q1.35 1.298 2.615 1.298.94 0 1.607-.665.665-.667.665-1.607 0-.803-.376-1.948-.377-1.145-2.035-4.22-1.64-3.095-2.136-4.684-.496-1.59-.496-2.803 0-2.358 1.333-3.845 1.35-1.504 3.435-1.504 1.18 0 2.512.615v2.836q-1.23-.735-2.102-.735-2.273 0-2.273 2.24 0 .82.375 1.983.393 1.145 2.034 4.204 1.656 3.042 2.135 4.648.495 1.59.495 2.82 0 2.393-1.35 3.897-1.333 1.486-3.47 1.486-1.537 0-2.973-.905z"
       style="-inkscape-font-specification:'Gill Sans MT Condensed, Condensed';fill:#0064ff;fill-opacity:0.24260356"
       id="path6" />
  </g>
  <g
     class="rocket-svg"
     id="g8"
     stroke-width=".518"
     style="fill:#0064ff;fill-opacity:0.24260356">
    <g
       id="g10"
       stroke-width=".628"
       style="fill:#0064ff;fill-opacity:0.24260356">
      <path
         d="M87.143 1024.326l.893 2.768c-1.072.925-2.232.56-3.304.09l.714-2.68"
         transform="matrix(.9667 0 0 .74573 10 -638.363)"
         id="path12"
         stroke="#000"
         fill="none"
         style="fill:#0064ff;fill-opacity:0.24260356" />
      <path
         d="M192.054 1006.648V866.023h15.982v140.714"
         transform="matrix(.9667 0 0 .74573 -98.205 -635.966)"
         id="path14"
         stroke="#000"
         fill="none"
         style="fill:#0064ff;fill-opacity:0.24260356" />
      <path
         d="M192.054 1018.612c-1.62 1.6-4.93 4.078-5.268 5.268.922.685 2.113.47 3.035-.268M192.054 1018.255l-12.59 8.66-9.196 4.465M166.964 1032.45l2.143-1.25 5-5.534"
         transform="matrix(.9667 0 0 .74573 -98.29 -635.966)"
         id="path16"
         stroke="#000"
         fill="none"
         style="fill:#0064ff;fill-opacity:0.24260356" />
      <path
         d="M175.18 1026.2c-5.626 6.073-5.716 5.984-5.716 5.984v-.18"
         transform="matrix(.9667 0 0 .74573 -98.29 -635.966)"
         id="path18"
         stroke="#000"
         fill="none"
         style="fill:#0064ff;fill-opacity:0.24260356" />
      <g
         id="g20"
         stroke="#000"
         fill="none"
         style="fill:#0064ff;fill-opacity:0.24260356">
        <path
           d="M163.93 1034.148l6.25.09 15.534-6.162 13.66-8.928-11.963 5.625-18.303 7.678-2.857.09zM183.93 1014.95c-9.734 10.448-9.823 10.448-9.823 10.448l1.34.982 9.732-10.268zM185.357 1015.934l8.66-8.93 2.322-.088v-1.875l-2.59.09.09 1.696M193.75 1005.04l-1.25.09.09 1.34-8.483 8.48"
           transform="matrix(.9667 0 0 .74573 -98.29 -635.966)"
           id="path22"
           style="fill:#0064ff;fill-opacity:0.24260356" />
      </g>
      <path
         d="M191.875 1009.148l.268 10.625c-.11 1.636.588 1.386 1.16 1.43l2.054-.09"
         transform="matrix(.9667 0 0 .74573 -98.29 -635.966)"
         id="path24"
         stroke="#000"
         fill="none"
         style="fill:#0064ff;fill-opacity:0.24260356" />
      <g
         id="g26"
         style="fill:#0064ff;fill-opacity:0.24260356">
        <path
           d="M192.054 1018.612c-1.62 1.6-4.93 4.078-5.268 5.268.922.685 2.113.47 3.035-.268M192.054 1018.255l-12.59 8.66-9.196 4.465M166.964 1032.45l2.143-1.25 5-5.534"
           transform="matrix(-.9667 0 0 .74573 288.67 -635.9)"
           id="path28"
           stroke="#000"
           fill="none"
           style="fill:#0064ff;fill-opacity:0.24260356" />
        <path
           d="M175.18 1026.2c-5.626 6.073-5.716 5.984-5.716 5.984v-.18"
           transform="matrix(-.9667 0 0 .74573 288.67 -635.9)"
           id="path30"
           stroke="#000"
           fill="none"
           style="fill:#0064ff;fill-opacity:0.24260356" />
        <g
           id="g32"
           stroke="#000"
           fill="none"
           style="fill:#0064ff;fill-opacity:0.24260356">
          <path
             d="M163.93 1034.148l6.25.09 15.534-6.162 13.66-8.928-11.963 5.625-18.303 7.678-2.857.09zM183.93 1014.95c-9.734 10.448-9.823 10.448-9.823 10.448l1.34.982 9.732-10.268zM185.357 1015.934l8.66-8.93 2.322-.088v-1.875l-2.59.09.09 1.696M193.75 1005.04l-1.25.09.09 1.34-8.483 8.48"
             transform="matrix(-.9667 0 0 .74573 288.67 -635.9)"
             id="path34"
             style="fill:#0064ff;fill-opacity:0.24260356" />
        </g>
        <path
           d="M191.875 1009.148l.268 10.625c-.11 1.636.588 1.386 1.16 1.43l2.054-.09"
           transform="matrix(-.9667 0 0 .74573 288.67 -635.9)"
           id="path36"
           stroke="#000"
           fill="none"
           style="fill:#0064ff;fill-opacity:0.24260356" />
      </g>
      <path
         d="M191.964 1017.362l15.982.09"
         transform="matrix(.9667 0 0 .74573 -98.205 -635.966)"
         id="path38"
         stroke="#000"
         fill="none"
         style="fill:#0064ff;fill-opacity:0.24260356" />
      <path
         d="M99.196 1023.79c2.614.144 5.034.093 7.412 0"
         transform="matrix(.9667 0 0 .74573 -4.296 -637.963)"
         id="path40"
         stroke="#000"
         fill="none"
         style="fill:#0064ff;fill-opacity:0.24260356" />
      <g
         id="g42"
         style="fill:#0064ff;fill-opacity:0.24260356">
        <path
           d="M86.16 1027.63c1.013.673 2.025.98 3.036 0M90.625 1024.416l.982 2.59c-1.07.924-2.32.648-3.393.177l.893-2.767M84.286 1024.505l.357 2.41c-.958.24-1.973.38-3.393-.535"
           transform="matrix(.9667 0 0 .74573 10 -638.363)"
           id="path44"
           stroke="#000"
           fill="none"
           style="fill:#0064ff;fill-opacity:0.24260356" />
        <g
           id="g46"
           stroke="#000"
           fill="none"
           style="fill:#0064ff;fill-opacity:0.24260356">
          <path
             d="M83.75 1024.594l.357 2.41c-.958.24-2.152.47-3.57-.445M81.786 1024.326l-1.072 1.16"
             transform="matrix(-.9667 0 0 .74573 179.804 -638.363)"
             id="path48"
             style="fill:#0064ff;fill-opacity:0.24260356" />
        </g>
      </g>
      <path
         d="M192.054 889.505l15.803.09"
         transform="matrix(.9667 0 0 .74573 -98.27 -635.784)"
         id="path50"
         stroke="#000"
         fill="none"
         style="fill:#0064ff;fill-opacity:0.24260356" />
      <g
         id="g52"
         style="fill:#0064ff;fill-opacity:0.24260356">
        <g
           id="g54"
           stroke="#000"
           fill="none"
           style="fill:#0064ff;fill-opacity:0.24260356">
          <path
             d="M174.267 889.065l1.547-.332M175.246 889.033l1.546-.33M176.177 889.05l1.562-.38M177.156 888.986l1.562-.38"
             transform="matrix(.9667 0 0 .74573 -84.595 -636.447)"
             id="path56"
             style="fill:#0064ff;fill-opacity:0.24260356" />
        </g>
        <g
           transform="matrix(.9667 0 0 .74573 -84.527 -636.462)"
           id="g58"
           style="fill:#0064ff;fill-opacity:0.24260356">
          <ellipse
             cx="180.179"
             cy="888.567"
             rx="1.161"
             ry="1.563"
             id="ellipse60"
             style="fill:#0064ff;fill-opacity:0.24260356" />
          <path
             d="M179.91 888.88c-.356 0-2.23.446-2.23.446h-4.287M179.286 888.612l-4.16.09-1.67.325"
             id="path62"
             stroke="#000"
             fill="none"
             style="fill:#0064ff;fill-opacity:0.24260356" />
        </g>
        <path
           d="M174.583 888.828l4.027-.06M174.11 888.923l4.058-.06"
           transform="matrix(.9667 0 0 .74573 -84.527 -636.462)"
           id="path64"
           stroke="#000"
           fill="none"
           style="fill:#0064ff;fill-opacity:0.24260356" />
      </g>
      <g
         id="g66"
         style="fill:#0064ff;fill-opacity:0.24260356">
        <g
           id="g68"
           stroke="#000"
           fill="none"
           style="fill:#0064ff;fill-opacity:0.24260356">
          <path
             d="M174.267 889.065l1.547-.332M175.246 889.033l1.546-.33M176.177 889.05l1.562-.38M177.156 888.986l1.562-.38"
             transform="matrix(-.9667 0 0 .74573 275.127 -636.645)"
             id="path70"
             style="fill:#0064ff;fill-opacity:0.24260356" />
        </g>
        <g
           transform="matrix(-.9667 0 0 .74573 275.06 -636.66)"
           id="g72"
           style="fill:#0064ff;fill-opacity:0.24260356">
          <ellipse
             ry="1.563"
             rx="1.161"
             cy="888.567"
             cx="180.179"
             id="ellipse74"
             style="fill:#0064ff;fill-opacity:0.24260356" />
          <path
             d="M179.91 888.88c-.356 0-2.23.446-2.23.446h-4.287M179.286 888.612l-4.16.09-1.67.325"
             id="path76"
             stroke="#000"
             fill="none"
             style="fill:#0064ff;fill-opacity:0.24260356" />
        </g>
        <path
           d="M174.583 888.828l4.027-.06M174.11 888.923l4.058-.06"
           transform="matrix(-.9667 0 0 .74573 275.06 -636.66)"
           id="path78"
           stroke="#000"
           fill="none"
           style="fill:#0064ff;fill-opacity:0.24260356" />
      </g>
    </g>
    <path
       d="M96.608 994.645c-4.988 4.786-.103 23.936.796 38.183.937-14.114 7.11-33.6 1.503-38.095"
       transform="matrix(1.16855 0 0 .90512 -19.47 -772.396)"
       id="path80"
       stroke="#000"
       fill="none"
       style="fill:#0064ff;fill-opacity:0.24260356" />
    <path
       d="M96.608 994.91c-2.914 9.36.844 13.305 1.15 20.064.488-6.766 4.046-13.746 1.15-20.064"
       transform="matrix(1.16855 0 0 .90512 -19.47 -772.396)"
       id="path82"
       stroke="#000"
       fill="none"
       style="fill:#0064ff;fill-opacity:0.24260356" />
  </g>
</svg>
